<svg width="291" height="661" viewBox="0 0 291 661" fill="none" xmlns="http://www.w3.org/2000/svg">
<rect x="213.748" y="370.319" width="59.1702" height="302.402" rx="20" transform="rotate(30.5588 213.748 370.319)" fill="#14C3FB"/>
<path d="M291 319.5C291 397.648 225.857 461 145.5 461C65.1426 461 0 397.648 0 319.5C0 241.352 65.1426 178 145.5 178C225.857 178 291 241.352 291 319.5ZM59.3773 319.5C59.3773 365.757 97.9358 403.255 145.5 403.255C193.064 403.255 231.623 365.757 231.623 319.5C231.623 273.243 193.064 235.745 145.5 235.745C97.9358 235.745 59.3773 273.243 59.3773 319.5Z" fill="#14C3FB"/>
<path d="M291 319.5C291 397.648 225.857 461 145.5 461C65.1426 461 0 397.648 0 319.5C0 241.352 65.1426 178 145.5 178C225.857 178 291 241.352 291 319.5ZM59.3773 319.5C59.3773 365.757 97.9358 403.255 145.5 403.255C193.064 403.255 231.623 365.757 231.623 319.5C231.623 273.243 193.064 235.745 145.5 235.745C97.9358 235.745 59.3773 273.243 59.3773 319.5Z" fill="url(#paint0_linear)"/>
<rect x="164.117" width="59.1702" height="305.095" rx="20" transform="rotate(30.5588 164.117 0)" fill="#1AFFC8"/>
<defs>
<linearGradient id="paint0_linear" x1="145.5" y1="178" x2="145.5" y2="461" gradientUnits="userSpaceOnUse">
<stop offset="0.182292" stop-color="#1AFFC8"/>
<stop offset="1" stop-color="white" stop-opacity="0"/>
</linearGradient>
</defs>
</svg>
